<?xml version="1.0" standalone="no"?>
<!DOCTYPE svg PUBLIC "-//W3C//DTD SVG 20010904//EN"
 "http://www.w3.org/TR/2001/REC-SVG-20010904/DTD/svg10.dtd">
<svg version="1.0" xmlns="http://www.w3.org/2000/svg"
 width="948.000000pt" height="263.000000pt" viewBox="0 0 948.000000 263.000000"
 preserveAspectRatio="xMidYMid meet">
<metadata>
Created by potrace 1.16, written by Peter Selinger 2001-2019
</metadata>
<g transform="translate(0.000000,263.000000) scale(0.100000,-0.100000)"
fill="#000000" stroke="none">
<path d="M875 2583 c-35 -9 -52 -32 -89 -119 -35 -79 -61 -136 -142 -311 -66
-142 -195 -424 -261 -572 -36 -80 -80 -177 -98 -216 -17 -38 -52 -115 -76
-170 -24 -55 -51 -116 -60 -134 -21 -45 -17 -51 88 -131 47 -36 113 -88 147
-115 122 -101 444 -353 464 -364 12 -6 70 -11 136 -11 l116 0 0 -95 0 -94 63
-51 c34 -29 69 -57 77 -63 78 -61 63 -57 211 -57 112 0 141 3 153 16 13 13 16
44 16 180 l0 164 93 0 c133 0 127 -10 127 233 0 164 -2 198 -16 211 -12 12
-37 16 -110 16 l-94 0 -2 48 c-1 26 0 151 2 278 3 225 2 232 -19 253 -20 20
-30 21 -239 21 -181 0 -221 -3 -240 -16 -22 -15 -22 -17 -22 -300 l0 -284
-224 0 c-124 0 -227 4 -230 9 -5 8 25 80 119 286 15 33 33 74 40 90 8 17 41
91 75 165 34 74 66 144 70 155 4 11 50 112 103 225 104 225 128 279 192 420
24 52 64 137 89 189 25 52 46 103 46 113 0 11 -11 23 -26 28 -25 10 -441 12
-479 3z"/>
<path d="M2250 2583 c-14 -3 -31 -10 -37 -15 -18 -15 -19 -2458 -1 -2476 9 -9
76 -12 239 -12 186 0 229 3 239 15 9 11 11 179 9 714 -2 385 0 703 3 707 8 8
52 -82 131 -271 70 -167 265 -617 310 -716 49 -108 52 -109 229 -109 178 0
178 0 238 140 23 52 50 113 60 135 56 125 167 382 230 530 107 253 122 285
133 285 6 0 8 -257 6 -701 -4 -684 -4 -701 15 -715 16 -11 65 -14 234 -14 128
0 221 4 233 10 19 10 19 35 19 1233 0 1040 -2 1226 -14 1243 -13 18 -30 19
-223 22 -243 4 -277 -3 -305 -58 -20 -39 -45 -96 -113 -255 -26 -60 -61 -139
-77 -175 -16 -36 -65 -146 -108 -245 -43 -99 -109 -252 -148 -340 -38 -88 -75
-173 -82 -190 -8 -16 -28 -63 -47 -103 -18 -41 -33 -79 -33 -85 0 -29 -34 29
-86 148 -82 189 -121 276 -224 505 -106 235 -190 425 -262 590 -69 159 -86
187 -121 200 -29 10 -395 12 -447 3z"/>
<path d="M5723 2580 c-28 -12 -34 -23 -92 -187 -27 -76 -70 -196 -96 -268 -25
-71 -73 -204 -105 -295 -77 -220 -250 -705 -305 -855 -47 -130 -109 -302 -203
-570 -33 -93 -70 -198 -83 -231 -37 -97 -45 -94 261 -94 241 0 258 1 274 19
10 11 36 80 57 153 53 180 92 292 104 300 5 4 200 8 431 8 326 0 424 -3 431
-12 5 -7 22 -53 37 -103 92 -301 113 -351 149 -360 12 -3 132 -4 267 -3 l245
3 3 28 c2 16 -10 63 -27 105 -16 43 -51 138 -76 212 -99 286 -135 389 -175
500 -23 63 -75 210 -115 325 -40 116 -99 282 -130 370 -51 142 -150 427 -266
765 -52 151 -69 183 -99 191 -37 10 -462 9 -487 -1z m287 -826 c17 -54 74
-229 125 -389 52 -159 96 -301 97 -315 l3 -25 -268 -2 c-147 0 -269 3 -272 8
-3 4 20 88 51 186 143 450 198 620 207 641 14 30 17 23 57 -104z"/>
<path d="M7427 2583 c-18 -3 -31 -13 -38 -29 -13 -36 -12 -2429 1 -2455 10
-18 24 -19 239 -19 201 0 230 2 242 17 12 13 13 146 11 795 -2 489 0 778 6
778 11 0 83 -120 230 -385 55 -99 133 -236 172 -305 40 -69 86 -150 103 -180
16 -30 56 -100 87 -155 31 -55 68 -120 82 -145 168 -302 213 -378 234 -397 25
-22 31 -23 259 -23 187 0 236 3 248 14 11 12 15 131 20 703 4 378 4 705 1 726
-7 41 -21 55 -206 197 -56 44 -119 94 -138 110 -102 85 -136 110 -149 110 -12
0 -13 -69 -10 -472 3 -371 1 -472 -8 -475 -7 -3 -13 -1 -13 5 0 5 -66 125
-146 268 -81 142 -172 304 -202 359 -30 55 -127 226 -215 380 -88 154 -167
294 -176 310 -10 17 -43 75 -74 130 -83 150 -60 140 -316 141 -119 1 -229 0
-244 -3z"/>
</g>
</svg>
