<?xml version="1.0" standalone="no"?>
<!DOCTYPE svg PUBLIC "-//W3C//DTD SVG 20010904//EN"
 "http://www.w3.org/TR/2001/REC-SVG-20010904/DTD/svg10.dtd">
<svg version="1.0" xmlns="http://www.w3.org/2000/svg"
 width="1828.000000pt" height="558.000000pt" viewBox="0 0 1828.000000 558.000000"
 preserveAspectRatio="xMidYMid meet">
<metadata>
Created by potrace 1.16, written by Peter Selinger 2001-2019
</metadata>
<g transform="translate(0.000000,558.000000) scale(0.100000,-0.100000)"
fill="#000000" stroke="none">
<path d="M11111 5193 c-37 -15 -54 -45 -96 -168 -8 -22 -26 -71 -40 -110 -14
-38 -30 -84 -34 -100 -4 -17 -14 -42 -21 -55 -7 -13 -17 -38 -21 -55 -4 -16
-19 -61 -34 -100 -14 -38 -30 -83 -35 -100 -5 -16 -20 -61 -35 -100 -53 -144
-66 -181 -75 -210 -14 -48 -42 -128 -51 -147 -5 -10 -23 -59 -39 -110 -17 -51
-37 -106 -44 -123 -8 -16 -17 -45 -21 -62 -3 -18 -11 -35 -16 -38 -5 -4 -9
-16 -9 -28 -1 -12 -9 -40 -20 -62 -11 -22 -20 -47 -20 -55 0 -8 -7 -28 -15
-44 -9 -16 -20 -46 -25 -65 -4 -20 -20 -67 -35 -106 -14 -38 -30 -85 -35 -103
-4 -18 -12 -38 -18 -45 -5 -7 -14 -30 -20 -52 -6 -22 -22 -71 -37 -110 -14
-38 -30 -83 -35 -100 -5 -16 -20 -61 -35 -100 -53 -143 -66 -181 -75 -210 -5
-16 -20 -61 -35 -100 -53 -144 -66 -181 -75 -210 -16 -54 -43 -130 -55 -155
-7 -14 -16 -40 -20 -58 -4 -18 -13 -45 -21 -60 -8 -15 -14 -34 -14 -42 0 -8
-9 -33 -20 -55 -11 -22 -19 -49 -20 -60 0 -11 -6 -29 -14 -40 -7 -11 -17 -35
-21 -53 -4 -18 -13 -45 -21 -60 -8 -15 -14 -34 -14 -42 0 -8 -7 -28 -15 -44
-9 -16 -20 -46 -25 -65 -4 -20 -20 -67 -35 -106 -14 -38 -30 -83 -35 -100 -5
-16 -20 -61 -35 -100 -53 -143 -66 -181 -75 -210 -5 -16 -20 -61 -35 -100 -14
-38 -39 -108 -55 -155 -29 -84 -61 -173 -101 -280 -11 -30 -25 -78 -31 -107
-19 -89 -56 -83 511 -83 l498 0 23 25 c26 28 47 77 61 144 5 24 13 49 18 55 5
6 12 29 16 51 4 22 13 50 21 62 7 12 18 39 23 60 5 21 14 52 20 68 19 56 42
130 51 165 5 19 25 81 44 138 20 57 36 110 36 117 0 8 8 19 19 24 30 16 1639
14 1670 -2 17 -8 29 -27 37 -57 13 -49 27 -89 55 -165 11 -28 19 -57 19 -65 1
-8 9 -33 20 -55 11 -22 19 -51 20 -65 0 -14 6 -34 14 -45 7 -11 16 -38 20 -59
4 -22 14 -49 22 -60 8 -11 14 -32 14 -46 0 -14 7 -38 16 -55 9 -16 20 -46 25
-65 15 -68 41 -128 63 -149 22 -21 33 -21 518 -26 570 -6 535 -11 524 79 -4
28 -16 68 -27 89 -10 21 -19 47 -19 58 0 12 -6 33 -14 47 -14 26 -39 96 -55
157 -5 17 -16 44 -25 60 -9 17 -16 39 -16 50 0 11 -6 29 -14 40 -7 11 -16 38
-20 59 -4 22 -14 49 -22 60 -8 11 -14 31 -14 43 0 13 -9 40 -20 60 -11 21 -20
48 -20 60 0 12 -6 34 -14 50 -16 32 -43 106 -77 213 -13 41 -29 84 -36 95 -7
11 -13 31 -13 45 0 14 -9 39 -20 55 -11 17 -20 41 -20 55 0 14 -6 35 -14 46
-8 11 -17 38 -21 60 -4 21 -13 49 -21 61 -8 12 -14 30 -14 40 0 10 -9 35 -20
56 -11 20 -20 45 -20 54 0 18 -29 99 -61 169 -11 23 -19 52 -19 65 0 13 -7 33
-15 43 -8 11 -15 28 -15 38 0 9 -8 37 -19 60 -23 53 -40 101 -55 155 -7 24
-17 48 -24 55 -7 7 -12 23 -12 38 -1 14 -9 43 -20 65 -11 22 -19 48 -20 58 0
9 -9 34 -20 54 -11 21 -20 47 -20 58 -1 11 -7 31 -15 45 -8 14 -14 34 -15 45
0 11 -9 37 -20 58 -11 20 -20 45 -20 55 0 10 -9 35 -20 57 -11 22 -20 48 -20
60 0 11 -7 29 -15 39 -8 11 -15 29 -15 40 0 12 -7 35 -16 51 -9 17 -20 46 -25
65 -4 19 -20 67 -34 105 -15 39 -31 88 -37 110 -6 22 -17 49 -25 60 -7 11 -13
29 -13 40 -1 11 -9 38 -20 60 -11 22 -20 49 -20 60 0 11 -7 29 -15 39 -8 11
-15 29 -15 40 -1 12 -9 39 -20 61 -11 22 -19 48 -20 58 0 9 -9 34 -20 54 -11
21 -20 47 -20 58 0 11 -6 29 -14 40 -7 11 -16 38 -20 59 -4 22 -14 49 -22 60
-8 11 -14 30 -14 41 -1 11 -9 38 -20 60 -11 22 -19 49 -20 60 0 11 -7 30 -15
41 -8 12 -19 39 -24 60 -10 42 -23 82 -51 154 -27 70 -41 111 -54 155 -6 22
-17 50 -24 62 -6 12 -12 29 -12 39 0 9 -9 35 -19 58 -11 23 -22 52 -25 66 -3
14 -16 39 -30 55 l-24 30 -484 2 c-265 1 -489 -1 -497 -4z m496 -1398 c8 -22
21 -65 30 -95 8 -30 19 -59 23 -65 5 -5 12 -28 16 -50 4 -22 13 -49 20 -60 8
-11 14 -30 14 -43 0 -13 7 -38 15 -55 8 -18 19 -50 24 -72 10 -42 22 -79 52
-160 11 -28 19 -59 19 -70 0 -12 6 -30 14 -41 8 -11 17 -38 21 -60 4 -21 13
-49 21 -61 8 -12 14 -33 14 -45 0 -13 9 -40 20 -61 11 -20 20 -48 20 -62 0
-14 9 -42 20 -62 11 -21 20 -46 20 -56 0 -10 6 -30 14 -45 8 -15 18 -46 21
-67 4 -22 11 -44 15 -50 4 -5 15 -35 23 -65 16 -58 28 -95 59 -173 11 -27 18
-63 16 -80 l-3 -32 -533 -3 c-599 -2 -557 -8 -528 76 16 44 25 73 61 190 15
51 41 127 89 267 10 28 21 66 26 85 10 39 35 116 55 170 24 64 46 134 56 179
5 24 13 49 18 55 6 7 14 30 20 51 5 22 17 63 27 90 9 28 22 66 29 85 7 19 20
58 29 85 10 28 21 66 26 85 12 47 38 128 56 168 8 18 14 43 14 56 0 51 26 46
47 -9z"/>
<path d="M14348 5168 l-23 -33 3 -2363 c3 -2598 -2 -2413 63 -2426 52 -10 848
-7 868 4 10 5 23 22 29 37 14 38 22 724 22 2001 0 978 1 1043 17 1040 9 -2 20
-12 23 -23 3 -11 14 -33 24 -50 9 -16 36 -63 59 -104 23 -41 53 -93 65 -115
21 -36 59 -106 101 -184 8 -15 20 -33 28 -40 7 -7 13 -20 13 -27 0 -7 7 -20
15 -29 8 -8 20 -25 25 -38 6 -13 28 -54 50 -93 22 -38 47 -83 56 -100 8 -16
26 -48 39 -70 14 -22 29 -50 34 -62 6 -12 23 -41 38 -65 15 -24 33 -54 40 -68
7 -14 17 -33 23 -42 5 -10 15 -26 20 -35 6 -10 17 -31 26 -48 8 -16 26 -48 39
-70 14 -22 29 -49 34 -60 5 -12 16 -27 25 -34 9 -7 16 -21 16 -31 0 -10 7 -23
15 -30 8 -6 17 -21 21 -32 3 -11 19 -39 35 -62 15 -24 33 -54 39 -67 6 -13 22
-42 35 -64 14 -22 32 -53 40 -70 8 -16 20 -37 25 -45 9 -14 58 -100 143 -249
21 -36 45 -79 53 -96 8 -16 26 -48 39 -70 13 -22 29 -52 36 -67 6 -16 15 -28
19 -28 4 0 13 -12 19 -27 6 -16 22 -46 35 -68 14 -22 32 -53 40 -70 9 -16 20
-38 26 -47 5 -10 15 -26 20 -35 6 -10 16 -29 23 -43 7 -14 25 -44 40 -68 15
-24 32 -53 38 -65 5 -12 21 -40 34 -62 13 -22 31 -53 39 -70 31 -60 78 -140
92 -156 8 -8 14 -21 14 -27 0 -6 15 -25 33 -41 l32 -31 473 0 472 0 20 32 c20
32 20 55 20 1408 l0 1376 -22 31 c-25 33 -122 118 -196 170 -25 17 -63 47 -83
67 -21 19 -62 52 -91 73 -29 20 -64 48 -78 61 -14 14 -59 51 -100 82 -41 32
-91 72 -110 89 -45 39 -46 40 -100 76 -24 17 -58 44 -75 62 -33 35 -84 65 -97
57 -4 -3 -8 -419 -8 -925 l0 -920 -21 3 c-18 3 -73 86 -104 156 -3 6 -7 18
-10 25 -3 6 -17 30 -30 52 -14 22 -31 51 -37 65 -7 14 -31 56 -53 93 -46 79
-102 180 -140 252 -15 28 -32 57 -39 65 -7 8 -28 44 -45 80 -18 36 -44 83 -57
105 -13 22 -28 49 -34 60 -6 11 -21 38 -35 60 -13 22 -27 47 -30 55 -4 8 -11
22 -16 30 -5 8 -16 29 -24 45 -9 17 -34 62 -56 100 -22 39 -47 84 -55 100 -8
17 -26 48 -39 70 -13 22 -31 54 -39 70 -8 17 -33 62 -55 100 -23 39 -45 80
-51 93 -6 13 -17 30 -25 38 -8 9 -15 24 -15 33 0 10 -7 24 -15 31 -8 6 -17 21
-21 33 -4 12 -15 33 -25 47 -19 27 -46 75 -102 180 -33 63 -77 144 -124 225
-13 22 -30 54 -39 70 -8 17 -25 46 -37 66 -12 20 -37 63 -56 95 -19 33 -37 61
-41 64 -3 3 -19 32 -35 65 -17 33 -40 76 -53 95 -13 19 -37 62 -52 96 -16 33
-36 66 -44 73 -9 8 -16 22 -16 32 0 10 -4 21 -10 24 -5 3 -21 30 -35 60 -15
30 -40 66 -56 80 l-31 25 -478 0 -479 0 -23 -32z"/>
<path d="M1715 5183 c-36 -10 -65 -35 -84 -77 -11 -22 -35 -75 -55 -116 -19
-41 -38 -87 -42 -102 -3 -15 -12 -32 -20 -39 -8 -6 -14 -22 -14 -34 0 -12 -7
-28 -15 -35 -8 -7 -15 -17 -15 -23 0 -6 -9 -31 -21 -56 -19 -44 -29 -64 -78
-172 -12 -25 -21 -54 -21 -63 0 -9 -4 -16 -10 -16 -5 0 -14 -18 -20 -40 -6
-22 -15 -40 -20 -40 -5 0 -12 -16 -16 -35 -3 -19 -12 -39 -20 -46 -8 -6 -14
-19 -14 -29 0 -9 -9 -29 -20 -43 -11 -14 -20 -32 -20 -41 0 -9 -9 -33 -20 -53
-11 -21 -20 -45 -20 -54 0 -9 -6 -22 -14 -28 -8 -7 -18 -25 -21 -41 -3 -16
-13 -34 -21 -41 -8 -6 -14 -18 -14 -26 0 -8 -9 -31 -19 -51 -36 -69 -61 -129
-61 -144 0 -9 -6 -21 -14 -27 -8 -7 -18 -26 -21 -42 -4 -16 -11 -29 -15 -29
-5 0 -12 -16 -16 -35 -3 -19 -12 -39 -20 -46 -7 -6 -16 -26 -20 -45 -3 -18
-12 -38 -20 -45 -8 -6 -14 -19 -14 -28 0 -9 -9 -33 -20 -54 -11 -20 -20 -43
-20 -51 0 -7 -6 -19 -14 -25 -8 -7 -18 -26 -22 -44 -3 -17 -13 -37 -20 -45 -8
-7 -14 -23 -14 -34 0 -11 -9 -31 -20 -45 -11 -14 -20 -32 -20 -40 0 -8 -9 -26
-20 -40 -11 -14 -20 -34 -20 -43 0 -10 -7 -23 -15 -30 -8 -7 -15 -20 -15 -29
0 -9 -9 -33 -20 -54 -11 -20 -20 -46 -20 -57 0 -11 -7 -23 -15 -26 -8 -4 -15
-14 -15 -23 0 -9 -9 -33 -20 -54 -11 -20 -20 -42 -20 -48 0 -6 -9 -22 -20 -36
-11 -14 -20 -36 -20 -48 0 -12 -6 -28 -14 -34 -8 -7 -17 -24 -21 -39 -4 -15
-12 -34 -19 -42 -8 -8 -16 -28 -20 -44 -4 -15 -14 -35 -21 -43 -8 -8 -15 -25
-15 -37 0 -13 -7 -29 -15 -36 -8 -7 -15 -18 -15 -24 0 -6 -9 -28 -20 -49 -11
-20 -20 -43 -20 -51 0 -8 -7 -21 -15 -30 -14 -14 -13 -18 7 -41 12 -14 28 -25
35 -25 7 0 13 -5 13 -10 0 -6 8 -14 19 -18 10 -4 47 -33 82 -64 73 -66 68 -62
146 -124 65 -53 86 -71 111 -96 9 -10 20 -18 25 -18 8 0 84 -60 128 -100 8 -8
26 -22 38 -30 34 -22 83 -61 116 -93 17 -15 53 -43 80 -62 28 -18 68 -50 90
-70 22 -20 60 -51 85 -68 25 -16 53 -39 63 -49 10 -10 52 -44 95 -76 42 -31
90 -70 106 -85 17 -15 55 -44 84 -63 l52 -35 223 1 c180 0 226 -2 242 -14 19
-13 20 -25 18 -185 l-3 -171 59 -60 c32 -33 63 -60 68 -60 6 0 13 -7 17 -15 3
-8 11 -15 17 -15 11 0 77 -52 144 -113 16 -15 48 -38 70 -51 40 -24 43 -24
298 -21 240 2 259 3 272 21 12 16 14 76 15 336 0 274 2 319 16 332 13 13 45
16 197 16 179 0 182 0 202 24 20 23 21 34 20 399 l0 375 -23 25 c-23 24 -26
24 -205 26 -158 1 -184 3 -194 18 -15 19 -20 337 -15 814 l4 287 -23 16 c-21
14 -74 16 -460 16 -394 0 -438 -2 -450 -17 -11 -13 -15 -119 -19 -558 -4 -441
-8 -545 -19 -559 -12 -15 -55 -16 -470 -14 l-456 3 -3 22 c-2 13 4 33 12 45 9
12 16 30 16 39 0 9 6 22 14 28 8 7 18 25 21 41 3 16 22 59 41 97 18 37 34 75
34 84 0 9 7 22 15 29 8 7 17 27 21 46 3 18 12 38 20 45 8 6 14 19 14 28 0 9 9
30 20 46 11 17 20 37 20 46 0 9 7 22 15 29 8 7 15 18 15 26 0 16 12 45 50 114
17 30 30 62 30 71 0 9 7 22 15 29 8 6 17 22 21 33 3 12 15 42 26 67 11 25 26
59 33 75 31 71 59 131 67 145 4 8 11 22 14 30 3 8 23 51 44 95 71 150 80 171
80 182 0 6 7 16 15 23 8 7 15 21 15 32 0 11 9 31 20 45 11 14 20 34 20 43 0
10 7 23 15 30 8 7 17 27 21 46 3 18 12 38 20 45 8 6 14 18 14 26 0 8 9 31 19
51 11 20 30 60 42 87 12 28 26 57 31 65 4 8 11 22 14 30 7 21 45 102 56 120 4
8 11 22 14 30 7 17 48 108 71 160 9 19 20 42 25 50 4 8 11 22 14 30 4 8 14 33
24 55 10 22 21 50 24 62 4 11 13 27 21 33 8 7 15 23 15 35 0 12 7 28 15 35 8
7 15 17 15 23 0 5 12 35 26 66 14 31 32 72 41 91 9 19 20 42 25 50 8 15 13 25
50 110 39 89 51 115 59 130 5 8 13 26 19 40 5 14 16 38 25 53 20 39 19 53 -7
71 -20 14 -81 16 -478 15 -250 -1 -464 -4 -475 -6z"/>
<path d="M4319 5159 l-22 -31 6 -1272 c8 -1603 9 -1963 2 -2787 l-5 -666 22
-24 23 -25 434 2 c351 2 435 5 442 16 5 7 9 635 9 1394 0 1301 1 1382 17 1388
23 9 70 -46 79 -91 3 -18 12 -37 19 -43 8 -6 17 -25 20 -41 4 -17 13 -42 21
-57 8 -15 14 -34 14 -43 0 -9 7 -22 15 -29 8 -7 15 -20 15 -29 0 -9 9 -31 20
-49 11 -18 20 -39 20 -48 0 -13 20 -57 52 -114 4 -8 11 -22 14 -30 3 -8 13
-33 24 -55 10 -22 22 -51 26 -65 3 -14 13 -34 20 -45 8 -11 14 -27 14 -36 0
-9 6 -22 14 -28 8 -7 17 -24 20 -39 7 -29 14 -46 70 -162 19 -41 38 -87 42
-102 3 -15 12 -32 20 -39 8 -6 14 -18 14 -25 0 -8 9 -31 20 -51 11 -21 20 -44
20 -51 0 -8 6 -26 14 -40 14 -26 74 -154 118 -252 11 -25 27 -58 34 -73 8 -16
14 -34 14 -41 0 -8 9 -25 20 -39 11 -14 20 -33 20 -42 0 -9 6 -29 13 -43 8
-15 23 -47 34 -72 12 -25 30 -64 42 -88 11 -23 21 -48 21 -54 0 -16 51 -88 62
-88 5 0 16 -7 24 -15 13 -13 60 -15 299 -15 l284 0 34 30 c31 26 55 68 102
175 8 17 26 57 40 90 15 33 33 74 40 90 8 17 23 53 35 80 37 86 76 174 111
250 12 28 29 66 37 85 8 19 23 52 33 72 11 20 19 43 19 51 0 8 6 20 14 26 8 7
17 24 21 39 6 26 16 49 75 177 59 128 69 151 75 177 4 15 13 32 21 39 8 6 14
18 14 26 0 8 8 31 19 51 43 86 51 104 51 114 0 5 18 47 40 93 22 46 40 88 40
93 0 6 7 23 15 39 9 15 20 39 25 53 6 14 14 32 19 40 20 34 51 108 51 122 0 9
6 21 14 27 8 7 17 28 21 47 7 39 27 53 50 34 13 -11 15 -181 15 -1375 l0
-1362 25 -27 24 -26 418 0 c363 0 422 2 441 16 l22 15 0 2389 0 2389 -22 15
c-20 14 -80 16 -463 16 -330 -1 -446 -4 -462 -13 -24 -13 -73 -74 -73 -91 0
-5 -9 -30 -21 -55 -11 -25 -27 -61 -35 -78 -8 -18 -20 -48 -28 -65 -8 -18 -24
-54 -35 -79 -12 -25 -21 -51 -21 -58 0 -10 -21 -56 -52 -111 -4 -8 -12 -26
-18 -40 -5 -14 -16 -38 -25 -53 -8 -16 -15 -33 -15 -39 0 -6 -9 -30 -20 -54
-19 -41 -45 -99 -75 -169 -7 -16 -22 -51 -34 -76 -12 -25 -21 -53 -21 -61 0
-9 -7 -21 -15 -28 -8 -7 -17 -27 -21 -46 -3 -18 -12 -38 -20 -45 -8 -6 -14
-18 -14 -25 0 -7 -10 -35 -21 -61 -12 -27 -30 -68 -41 -93 -11 -25 -27 -61
-35 -80 -9 -19 -23 -53 -33 -75 -29 -66 -47 -108 -69 -156 -12 -25 -21 -51
-21 -58 0 -7 -9 -24 -20 -38 -11 -14 -20 -32 -20 -39 0 -8 -9 -31 -20 -51 -11
-21 -20 -45 -20 -54 0 -9 -7 -22 -15 -29 -8 -7 -15 -18 -15 -24 0 -7 -9 -29
-20 -51 -11 -22 -20 -45 -20 -52 0 -7 -9 -30 -20 -50 -11 -21 -20 -45 -20 -54
0 -9 -7 -22 -15 -29 -8 -7 -15 -19 -15 -26 0 -13 -33 -93 -51 -124 -5 -8 -12
-22 -15 -30 -4 -8 -14 -33 -24 -55 -9 -22 -27 -65 -40 -95 -13 -30 -41 -92
-62 -136 -21 -45 -38 -85 -38 -89 0 -4 -10 -29 -22 -56 -15 -31 -29 -49 -40
-49 -19 0 -58 37 -58 55 0 5 -9 27 -20 48 -11 20 -20 45 -20 55 0 11 -9 29
-20 42 -11 13 -20 31 -20 40 0 9 -7 25 -15 36 -8 10 -15 26 -15 34 0 8 -18 51
-40 94 -22 43 -40 84 -40 90 0 6 -16 45 -36 86 -67 141 -74 157 -74 172 0 9
-7 21 -15 28 -8 7 -15 17 -15 23 0 5 -9 31 -21 56 -12 25 -27 60 -34 76 -49
113 -68 153 -80 177 -8 14 -15 35 -15 45 0 11 -9 28 -19 37 -10 9 -21 27 -24
39 -10 43 -39 112 -52 127 -7 8 -17 27 -20 43 -4 15 -11 30 -16 33 -5 3 -9 12
-9 21 0 9 -12 41 -27 72 -25 53 -38 84 -68 156 -7 17 -30 68 -52 115 -22 47
-50 106 -62 131 -11 25 -21 53 -21 61 0 9 -6 21 -14 27 -8 7 -17 24 -20 39 -4
15 -14 43 -23 62 -9 19 -24 53 -34 75 -10 22 -27 61 -38 86 -12 25 -21 50 -21
56 0 6 -7 16 -15 23 -8 7 -15 21 -15 30 0 10 -15 48 -34 84 -19 36 -37 79 -41
95 -3 16 -13 35 -21 42 -8 6 -14 18 -14 25 0 8 -9 31 -20 51 -11 21 -20 44
-20 51 0 19 -36 63 -68 84 -25 16 -64 18 -479 18 l-452 0 -22 -31z"/>
</g>
</svg>
